<?xml version="1.0" encoding="UTF-8"?>
<svg id="Layer_2" data-name="Layer 2" xmlns="http://www.w3.org/2000/svg" viewBox="0 0 515.06 515.06">
  <g id="Layer_1-2" data-name="Layer 1">
    <g>
      <path
        d="M255.35,380.04h-22.24l-1.19,1.23v76.88l1.19,1.23h23.83c17.82,0,30.18-18.83,31.37-35.59,1.42-20.02-11.09-43.74-32.96-43.74Z" />
      <path
        d="M401.74,0H113.32C50.73,0,0,50.73,0,113.32v288.42c0,62.58,50.73,113.32,113.32,113.32h288.42c62.58,0,113.32-50.73,113.32-113.32V113.32c0-62.58-50.73-113.32-113.32-113.32ZM288.75,298.21c-2.61-.32-5.69.29-8.37.04v-11.45c6.83.65,15.44.4,13.34-9.23-1.64-7.49-16.24-6.24-14.93,2.69h-11.92c-1.69-20.06,26.58-26.22,36.87-11.38,6.02,8.68,2.82,19.47-6.69,23.24,16.32,4.64,13.52,26.23-1.02,31.66-12.82,4.78-32.35-1.56-30.74-18.16l11.41.11c2.07.73.75,6.49,7.24,7.27,13.36,1.59,13.72-13.67,4.82-14.77ZM272.43,85.6c2.43-.36,10.93-6.54,12.31-6.54h11.52v62.16h-13.51v-47.44l-10.33,5.73v-13.9ZM304.85,181.04c8.93,16.99-11.84,29.5-21.29,40.33h22.64c2.47,3.08.66,8.39,1.19,12.27h-40.12c-2.19-2.69-1.23-8.01-.78-11.44,6.51-8.46,18.27-16.56,24.21-24.96,8.76-12.39-6.28-19.15-11.57-11.1-1.47,2.24-.66,4.05-2.33,5.78h-11.52c-2.38-22.1,30.31-28.49,39.57-10.88ZM177.1,384.54l-1.9,1.16c-2.25-1.64-8.76-5.66-11.21-5.66h-43.69l-1.19,1.23v25.35l1.19,1.23h39.72c.74.52,1.19,2.05,1.19,2.86v19.63l-1.19,1.23h-40.91v27.81h47.27c1.45,0,7.29-3.65,8.82-4.84l1.9,1.16v26.99l-1.19,1.23h-91.36c-4.31,0,5.4-11.28,3.61-13.46-2.15-32.48,2.75-68.62,0-100.67-.48-5.63-2.7-7.2-5.5-11.54l1.1-1.92h92.15l1.19,1.23v26.99ZM141.33,312.55c-1.18,3.95-4.38,22.7-7.63,23.28-1.71-.29-3.31-2.45-3.9-4.03-2.3-6.21-3.6-15.8-5.73-22.73-13.08-42.63-39.46-84.63-77.53-107.47-3.82-2.29-10.89-3.71-11.5-8.63l6.57-85.31,2.39-.79,1.19,2.04c4.54,18.15,5.27,42.18,12.33,59.28,1.68,4.06,4.94,7.82,9.45,4.83,3.7-2.45,7.78-26.98,8.84-32.61,3.94-21.03,5.95-42.56,9.86-63.46l2.42-.36c4.67,24.8,7.12,50.89,12.97,75.4.65,2.74,2.54,12.71,5.04,13.62,6.7,2.41,7.61-4.71,8.76-9.53,9.31-39.03,10.12-80.34,16.24-119.87.31-2.01.45-4.74,1.88-6.22,1.14-.03,1.69,7.26,1.88,8.68,4.81,36.8,6.68,84.67,16.53,119.57,2.72,9.66,8.56,11.39,11.79.96,7.62-24.59,7.65-55.39,14.64-79.81,1.69-5.92,3.03-1.61,3.8,1.93,5.63,25.92,5.2,62.49,14.94,86.85,1.79,4.49,6.27,8.48,10.27,4.07,2.99-3.31,6.97-23.66,8.14-29.24,2.39-11.49,4.08-23.17,5.96-34.76l2.62-1.38,1.2,2.04,6.19,85.71c-.75,2.67-8.75,5.32-11.49,6.98-38.71,23.56-65.09,67.41-78.13,110.95ZM305.33,460.94c-25.02,32.76-70.41,20.55-105.63,23.01-6.15-.75-.33-5.5.84-8.21.95-2.22,1.05-3.76,1.22-6.11,2.36-32.73-1.85-68.42-.02-101.47-.34-4.05-3.52-6.71-5.51-9.89l1.25-1.82c33.19,2.13,81.47-9.18,106.34,19.49,18.18,20.96,18.24,63.1,1.51,85ZM327.83,307.05c-1.04-2.3-.96-22.67-.58-26.39.27-2.7.82-5.38,3.75-5.96l78.91.19c1.58.7,2.78,1.5,3.12,3.33.47,2.53.43,26.45-.14,28.44-.23.79-.74,1.39-1.43,1.8l-82.1.27c-.82-.28-1.19-.95-1.53-1.69ZM449.98,483.91h-37.34l-1.2-2c-.04-2.25,4.78-6.54,4.78-8.22v-40.89l-1.19-1.23h-41.31l-1.19,1.23v39.26c0,2.7,4.99,7.74,4.83,9.8l-1.25,2.06h-35.75c-.34,0-1.96-1.79-1.87-2.72.17-1.9,4.34-5.49,3.88-8.3l-.45-108.35c-.84-2.55-6.3-5.68-3.14-8.21h37.34l1.1,1.92c-.77,2.12-2.61,3.37-3.49,5.43-1.7,3.96-1.93,33.5-1.22,38.9.14,1.08,1.02,3.64,2.03,3.64h40.52l1.19-1.23v-39.26c0-1.1-4.67-5.22-5.22-7.74l.85-1.67h38.13l1.13,1.96c-3.1,3.69-4.38,6.59-4.74,11.5-2.36,32.46,1.86,67.89,0,100.67-1.7,2.27,8.27,13.46,3.61,13.46ZM453.4,215.89c-.23.79-.74,1.39-1.43,1.8l-121.8.25c-1.01-.31-1.94-1.54-2.33-2.51-.98-2.41-1.09-23.79-.56-27.14.26-1.6,1.3-3.9,2.89-4.39h121.23c1.73.62,1.97,1.81,2.18,3.48.43,3.36.5,26.07-.2,28.5ZM478.19,125.27c-.07.27-1.23,1.45-1.6,1.62l-145.75.4c-2.26-.59-3.35-2.14-3.64-4.43-.44-3.51-.26-26.43.84-28.45.3-.55,1.57-1.44,1.98-1.44h146.97l1.19,1.23v31.08Z" />
    </g>
  </g>
</svg>